{
  "accessors": [
    {
      "bufferView": 2,
      "componentType": 5126,
      "count": 900,
      "max": [
        134.56747436523438,
        19.050193786621094,
        27.95245361328125
      ],
      "min": [
        -68.7175064086914,
        19.000274658203125,
        -265.28399658203125
      ],
      "type": "VEC3"
    },
    {
      "bufferView": 2,
      "byteOffset": 10800,
      "componentType": 5126,
      "count": 900,
      "max": [
        0.3000972867012024,
        -0.9539079070091248,
        0.30009961128234863
      ],
      "min": [
        -0.30009493231773376,
        -1.0,
        -0.30009961128234863
      ],
      "type": "VEC3"
    },
    {
      "bufferView": 1,
      "componentType": 5126,
      "count": 900,
      "max": [
        0.625,
        1.0
      ],
      "min": [
        0.375,
        0.75
      ],
      "type": "VEC2"
    },
    {
      "bufferView": 0,
      "componentType": 5125,
      "count": 1350,
      "type": "SCALAR"
    },
    {
      "bufferView": 2,
      "byteOffset": 21600,
      "componentType": 5126,
      "count": 4072,
      "max": [
        155.4364013671875,
        19.059616088867188,
        41.18770217895508
      ],
      "min": [
        -118.14887237548828,
        -7.269809722900391,
        -279.7454833984375
      ],
      "type": "VEC3"
    },
    {
      "bufferView": 2,
      "byteOffset": 70464,
      "componentType": 5126,
      "count": 4072,
      "max": [
        1.0,
        1.0,
        1.0
      ],
      "min": [
        -1.0,
        -1.0,
        -1.0
      ],
      "type": "VEC3"
    },
    {
      "bufferView": 1,
      "byteOffset": 7200,
      "componentType": 5126,
      "count": 4072,
      "max": [
        34.25944900512695,
        47.795021057128906
      ],
      "min": [
        -33.25944900512695,
        -46.846527099609375
      ],
      "type": "VEC2"
    },
    {
      "bufferView": 0,
      "byteOffset": 5400,
      "componentType": 5125,
      "count": 8898,
      "type": "SCALAR"
    },
    {
      "bufferView": 2,
      "byteOffset": 119328,
      "componentType": 5126,
      "count": 8,
      "max": [
        154.23204040527344,
        -1.960128664970398,
        39.8662109375
      ],
      "min": [
        -116.94452667236328,
        -1.960128664970398,
        -278.4239501953125
      ],
      "type": "VEC3"
    },
    {
      "bufferView": 2,
      "byteOffset": 119424,
      "componentType": 5126,
      "count": 8,
      "max": [
        0.0,
        1.0,
        0.0
      ],
      "min": [
        0.0,
        1.0,
        0.0
      ],
      "type": "VEC3"
    },
    {
      "bufferView": 1,
      "byteOffset": 39776,
      "componentType": 5126,
      "count": 8,
      "max": [
        9.449283599853516,
        21.89072036743164
      ],
      "min": [
        -19.529682159423828,
        -20.89072036743164
      ],
      "type": "VEC2"
    },
    {
      "bufferView": 0,
      "byteOffset": 40992,
      "componentType": 5125,
      "count": 18,
      "type": "SCALAR"
    },
    {
      "bufferView": 2,
      "byteOffset": 119520,
      "componentType": 5126,
      "count": 80,
      "max": [
        155.29345703125,
        21.37718391418457,
        41.030845642089844
      ],
      "min": [
        -118.00592803955078,
        19.039871215820313,
        -279.588623046875
      ],
      "type": "VEC3"
    },
    {
      "bufferView": 2,
      "byteOffset": 120480,
      "componentType": 5126,
      "count": 80,
      "max": [
        1.0,
        0.9998884797096252,
        1.0
      ],
      "min": [
        -1.0,
        0.0,
        -1.0
      ],
      "type": "VEC3"
    },
    {
      "bufferView": 1,
      "byteOffset": 39840,
      "componentType": 5126,
      "count": 80,
      "max": [
        0.6147977709770203,
        0.6000950336456299
      ],
      "min": [
        0.3145168423652649,
        0.5000013709068298
      ],
      "type": "VEC2"
    },
    {
      "bufferView": 1,
      "byteOffset": 40480,
      "componentType": 5126,
      "count": 80,
      "max": [
        0.6147977709770203,
        0.6000950336456299
      ],
      "min": [
        0.3145168423652649,
        0.5000013709068298
      ],
      "type": "VEC2"
    },
    {
      "bufferView": 0,
      "byteOffset": 41064,
      "componentType": 5125,
      "count": 144,
      "type": "SCALAR"
    },
    {
      "bufferView": 2,
      "byteOffset": 121440,
      "componentType": 5126,
      "count": 2412,
      "max": [
        155.17059326171875,
        19.039871215820313,
        40.76066970825195
      ],
      "min": [
        -117.2901611328125,
        -3.0577499866485596,
        -279.0903015136719
      ],
      "type": "VEC3"
    },
    {
      "bufferView": 2,
      "byteOffset": 150384,
      "componentType": 5126,
      "count": 2412,
      "max": [
        1.0,
        1.0,
        1.0
      ],
      "min": [
        -1.0,
        -0.9999658465385437,
        -1.0
      ],
      "type": "VEC3"
    },
    {
      "bufferView": 1,
      "byteOffset": 41120,
      "componentType": 5126,
      "count": 2412,
      "max": [
        7.389555931091309,
        1.1702313423156738
      ],
      "min": [
        -6.440032005310059,
        -0.1702304482460022
      ],
      "type": "VEC2"
    },
    {
      "bufferView": 0,
      "byteOffset": 41640,
      "componentType": 5125,
      "count": 3726,
      "type": "SCALAR"
    },
    {
      "bufferView": 2,
      "byteOffset": 179328,
      "componentType": 5126,
      "count": 4,
      "max": [
        154.08908081054688,
        19.039871215820313,
        39.7093620300293
      ],
      "min": [
        -116.80155181884766,
        19.039871215820313,
        -278.2671203613281
      ],
      "type": "VEC3"
    },
    {
      "bufferView": 2,
      "byteOffset": 179376,
      "componentType": 5126,
      "count": 4,
      "max": [
        0.0,
        -1.0,
        0.0
      ],
      "min": [
        0.0,
        -1.0,
        0.0
      ],
      "type": "VEC3"
    },
    {
      "bufferView": 1,
      "byteOffset": 60416,
      "componentType": 5126,
      "count": 4,
      "max": [
        21.090057373046875,
        23.334903717041016
      ],
      "min": [
        -20.090057373046875,
        -22.334903717041016
      ],
      "type": "VEC2"
    },
    {
      "bufferView": 0,
      "byteOffset": 56544,
      "componentType": 5125,
      "count": 6,
      "type": "SCALAR"
    }
  ],
  "asset": {
    "extras": {
      "author": "Kasugay𓅂 (https://sketchfab.com/Kasugay)",
      "license": "CC-BY-4.0 (http://creativecommons.org/licenses/by/4.0/)",
      "source": "https://sketchfab.com/3d-models/psx-backroom-20643a0f60ba4a9f81a4a96996d2d488",
      "title": "(PSX) - Backroom"
    },
    "generator": "Sketchfab-0.13.0",
    "version": "2.0"
  },
  "bufferViews": [
    {
      "buffer": 0,
      "byteLength": 56568,
      "name": "floatBufferViews",
      "target": 34963
    },
    {
      "buffer": 0,
      "byteLength": 60448,
      "byteOffset": 56568,
      "byteStride": 8,
      "name": "floatBufferViews",
      "target": 34962
    },
    {
      "buffer": 0,
      "byteLength": 179424,
      "byteOffset": 117016,
      "byteStride": 12,
      "name": "floatBufferViews",
      "target": 34962
    }
  ],
  "buffers": [
    {
      "byteLength": 296440,
      "uri": "scene.bin"
    }
  ],
  "extensionsUsed": [
    "KHR_materials_specular"
  ],
  "images": [
    {
      "uri": "textures/lambert4_baseColor.png"
    },
    {
      "uri": "textures/lambert2_baseColor.png"
    },
    {
      "uri": "textures/lambert5_baseColor.png"
    },
    {
      "uri": "textures/lambert3_baseColor.png"
    },
    {
      "uri": "textures/lambert6_baseColor.png"
    }
  ],
  "materials": [
    {
      "doubleSided": true,
      "name": "lambert7",
      "pbrMetallicRoughness": {
        "metallicFactor": 0.0,
        "roughnessFactor": 0.6
      }
    },
    {
      "doubleSided": true,
      "name": "lambert4",
      "pbrMetallicRoughness": {
        "baseColorTexture": {
          "index": 0
        },
        "metallicFactor": 0.0,
        "roughnessFactor": 0.6
      }
    },
    {
      "doubleSided": true,
      "extensions": {
        "KHR_materials_specular": {
          "specularColorFactor": [
            1.0,
            1.0,
            1.0
          ],
          "specularFactor": 0.0
        }
      },
      "name": "lambert2",
      "pbrMetallicRoughness": {
        "baseColorTexture": {
          "index": 1
        },
        "metallicFactor": 0.0,
        "roughnessFactor": 0.6
      }
    },
    {
      "alphaMode": "BLEND",
      "doubleSided": true,
      "name": "lambert5",
      "pbrMetallicRoughness": {
        "baseColorTexture": {
          "index": 2
        },
        "metallicFactor": 0.0,
        "roughnessFactor": 0.6
      }
    },
    {
      "doubleSided": true,
      "extensions": {
        "KHR_materials_specular": {
          "specularColorFactor": [
            1.0,
            1.0,
            1.0
          ],
          "specularFactor": 0.0
        }
      },
      "name": "lambert3",
      "pbrMetallicRoughness": {
        "baseColorTexture": {
          "index": 3
        },
        "metallicFactor": 0.0,
        "roughnessFactor": 0.6
      }
    },
    {
      "doubleSided": true,
      "extensions": {
        "KHR_materials_specular": {
          "specularColorFactor": [
            1.0,
            1.0,
            1.0
          ],
          "specularFactor": 0.0
        }
      },
      "name": "lambert6",
      "pbrMetallicRoughness": {
        "baseColorTexture": {
          "index": 4
        },
        "metallicFactor": 0.0,
        "roughnessFactor": 0.6
      }
    }
  ],
  "meshes": [
    {
      "name": "Backroom_lambert7_0",
      "primitives": [
        {
          "attributes": {
            "NORMAL": 1,
            "POSITION": 0,
            "TEXCOORD_0": 2
          },
          "indices": 3,
          "material": 0,
          "mode": 4
        }
      ]
    },
    {
      "name": "Backroom_lambert4_0",
      "primitives": [
        {
          "attributes": {
            "NORMAL": 5,
            "POSITION": 4,
            "TEXCOORD_0": 6
          },
          "indices": 7,
          "material": 1,
          "mode": 4
        }
      ]
    },
    {
      "name": "Backroom_lambert2_0",
      "primitives": [
        {
          "attributes": {
            "NORMAL": 9,
            "POSITION": 8,
            "TEXCOORD_0": 10
          },
          "indices": 11,
          "material": 2,
          "mode": 4
        }
      ]
    },
    {
      "name": "Backroom_lambert5_0",
      "primitives": [
        {
          "attributes": {
            "NORMAL": 13,
            "POSITION": 12,
            "TEXCOORD_0": 14,
            "TEXCOORD_1": 15
          },
          "indices": 16,
          "material": 3,
          "mode": 4
        }
      ]
    },
    {
      "name": "Backroom_lambert3_0",
      "primitives": [
        {
          "attributes": {
            "NORMAL": 18,
            "POSITION": 17,
            "TEXCOORD_0": 19
          },
          "indices": 20,
          "material": 4,
          "mode": 4
        }
      ]
    },
    {
      "name": "Backroom_lambert6_0",
      "primitives": [
        {
          "attributes": {
            "NORMAL": 22,
            "POSITION": 21,
            "TEXCOORD_0": 23
          },
          "indices": 24,
          "material": 5,
          "mode": 4
        }
      ]
    }
  ],
  "nodes": [
    {
      "children": [
        1
      ],
      "matrix": [
        17.14179229736328,
        0.0,
        0.0,
        0.0,
        0.0,
        3.8062424983749746e-15,
        -17.14179229736328,
        0.0,
        0.0,
        17.14179229736328,
        3.8062424983749746e-15,
        0.0,
        0.0,
        0.0,
        0.0,
        1.0
      ],
      "name": "Sketchfab_model"
    },
    {
      "children": [
        2
      ],
      "matrix": [
        0.009999999776482582,
        0.0,
        0.0,
        0.0,
        0.0,
        0.0,
        0.009999999776482582,
        0.0,
        0.0,
        -0.009999999776482582,
        0.0,
        0.0,
        0.0,
        0.0,
        0.0,
        1.0
      ],
      "name": "2b5573aef2b9432597e5b807dddc7721.fbx"
    },
    {
      "children": [
        3
      ],
      "name": "RootNode"
    },
    {
      "children": [
        4,
        5,
        6,
        7,
        8,
        9
      ],
      "name": "Backroom"
    },
    {
      "mesh": 0,
      "name": "Backroom_lambert7_0"
    },
    {
      "mesh": 1,
      "name": "Backroom_lambert4_0"
    },
    {
      "mesh": 2,
      "name": "Backroom_lambert2_0"
    },
    {
      "mesh": 3,
      "name": "Backroom_lambert5_0"
    },
    {
      "mesh": 4,
      "name": "Backroom_lambert3_0"
    },
    {
      "mesh": 5,
      "name": "Backroom_lambert6_0"
    }
  ],
  "samplers": [
    {
      "magFilter": 9729,
      "minFilter": 9987,
      "wrapS": 10497,
      "wrapT": 10497
    },
    {
      "magFilter": 9729,
      "minFilter": 9729,
      "wrapS": 10497,
      "wrapT": 10497
    },
    {
      "magFilter": 9728,
      "minFilter": 9986,
      "wrapS": 10497,
      "wrapT": 10497
    }
  ],
  "scene": 0,
  "scenes": [
    {
      "name": "Sketchfab_Scene",
      "nodes": [
        0
      ]
    }
  ],
  "textures": [
    {
      "sampler": 0,
      "source": 0
    },
    {
      "sampler": 1,
      "source": 1
    },
    {
      "sampler": 0,
      "source": 2
    },
    {
      "sampler": 2,
      "source": 3
    },
    {
      "sampler": 2,
      "source": 4
    }
  ]
}
